<mxfile host="app.diagrams.net" modified="2020-11-24T09:14:42.682Z" agent="5.0 (Windows NT 10.0; Win64; x64) AppleWebKit/537.36 (KHTML, like Gecko) Chrome/86.0.4240.198 Safari/537.36" etag="NW2TPqhge2nirb9BYwDL" version="13.10.2" type="github">
  <diagram id="I4OeQGyICHFJKAzLYiSq" name="Page-1">
    <mxGraphModel dx="1673" dy="896" grid="1" gridSize="10" guides="1" tooltips="1" connect="1" arrows="1" fold="1" page="1" pageScale="1" pageWidth="827" pageHeight="1169" math="0" shadow="0">
      <root>
        <mxCell id="0" />
        <mxCell id="1" parent="0" />
        <mxCell id="ThTMRLt4GayNaDXG0wz7-2" value="Model Manegement front end" style="text;html=1;strokeColor=none;fillColor=none;align=center;verticalAlign=middle;whiteSpace=wrap;rounded=0;fontStyle=1;fontSize=15;" vertex="1" parent="1">
          <mxGeometry x="260" y="10" width="230" height="20" as="geometry" />
        </mxCell>
        <mxCell id="ThTMRLt4GayNaDXG0wz7-3" value="Current" style="text;html=1;strokeColor=none;fillColor=none;align=center;verticalAlign=middle;whiteSpace=wrap;rounded=0;fontSize=15;fontColor=#FF0000;fontStyle=1" vertex="1" parent="1">
          <mxGeometry x="30" y="90" width="40" height="20" as="geometry" />
        </mxCell>
        <mxCell id="ThTMRLt4GayNaDXG0wz7-16" style="edgeStyle=orthogonalEdgeStyle;rounded=0;orthogonalLoop=1;jettySize=auto;html=1;entryX=0.5;entryY=0;entryDx=0;entryDy=0;startArrow=none;startFill=0;fontSize=15;fontColor=#FF0000;" edge="1" parent="1" source="ThTMRLt4GayNaDXG0wz7-6" target="ThTMRLt4GayNaDXG0wz7-9">
          <mxGeometry relative="1" as="geometry" />
        </mxCell>
        <mxCell id="ThTMRLt4GayNaDXG0wz7-6" value="&lt;font color=&quot;#000000&quot;&gt;Api&lt;/font&gt;" style="rounded=0;whiteSpace=wrap;html=1;fontSize=15;fontColor=#FF0000;" vertex="1" parent="1">
          <mxGeometry x="20" y="140" width="100" height="40" as="geometry" />
        </mxCell>
        <mxCell id="ThTMRLt4GayNaDXG0wz7-13" style="edgeStyle=orthogonalEdgeStyle;rounded=0;orthogonalLoop=1;jettySize=auto;html=1;entryX=1;entryY=0.5;entryDx=0;entryDy=0;fontSize=15;fontColor=#FF0000;" edge="1" parent="1" source="ThTMRLt4GayNaDXG0wz7-8" target="ThTMRLt4GayNaDXG0wz7-6">
          <mxGeometry relative="1" as="geometry" />
        </mxCell>
        <mxCell id="ThTMRLt4GayNaDXG0wz7-14" style="edgeStyle=orthogonalEdgeStyle;rounded=0;orthogonalLoop=1;jettySize=auto;html=1;entryX=0.641;entryY=0.005;entryDx=0;entryDy=0;entryPerimeter=0;fontSize=15;fontColor=#FF0000;" edge="1" parent="1" source="ThTMRLt4GayNaDXG0wz7-8" target="ThTMRLt4GayNaDXG0wz7-9">
          <mxGeometry relative="1" as="geometry" />
        </mxCell>
        <mxCell id="ThTMRLt4GayNaDXG0wz7-8" value="&lt;font color=&quot;#000000&quot;&gt;Common&lt;/font&gt;" style="rounded=0;whiteSpace=wrap;html=1;fontSize=15;fontColor=#FF0000;" vertex="1" parent="1">
          <mxGeometry x="140" y="140" width="100" height="40" as="geometry" />
        </mxCell>
        <mxCell id="ThTMRLt4GayNaDXG0wz7-9" value="&lt;font color=&quot;#000000&quot; style=&quot;font-size: 20px;&quot;&gt;Web&lt;/font&gt;" style="rounded=0;whiteSpace=wrap;html=1;fontSize=20;fontColor=#FF0000;labelPosition=center;verticalLabelPosition=bottom;align=center;verticalAlign=top;" vertex="1" parent="1">
          <mxGeometry x="20" y="240" width="460" height="210" as="geometry" />
        </mxCell>
        <mxCell id="ThTMRLt4GayNaDXG0wz7-10" value="Liquify" style="rounded=0;whiteSpace=wrap;html=1;fontSize=15;fillColor=#dae8fc;strokeColor=#6c8ebf;" vertex="1" parent="1">
          <mxGeometry x="490" y="240" width="70" height="210" as="geometry" />
        </mxCell>
        <mxCell id="ThTMRLt4GayNaDXG0wz7-17" value="Search" style="rounded=0;whiteSpace=wrap;html=1;fontSize=15;fillColor=#ffe6cc;strokeColor=#d79b00;align=left;spacingLeft=4;fontStyle=1" vertex="1" parent="1">
          <mxGeometry x="30" y="250" width="350" height="50" as="geometry" />
        </mxCell>
        <mxCell id="ThTMRLt4GayNaDXG0wz7-18" value="Create" style="rounded=0;whiteSpace=wrap;html=1;fontSize=15;fillColor=#ffe6cc;strokeColor=#d79b00;fontStyle=1" vertex="1" parent="1">
          <mxGeometry x="110" y="370" width="70" height="50" as="geometry" />
        </mxCell>
        <mxCell id="ThTMRLt4GayNaDXG0wz7-19" value="Admin" style="rounded=0;whiteSpace=wrap;html=1;fontSize=15;fillColor=#ffe6cc;strokeColor=#d79b00;fontStyle=1" vertex="1" parent="1">
          <mxGeometry x="30" y="370" width="70" height="50" as="geometry" />
        </mxCell>
        <mxCell id="ThTMRLt4GayNaDXG0wz7-24" value="Grid" style="rounded=0;whiteSpace=wrap;html=1;fontSize=15;align=center;fillColor=#d5e8d4;strokeColor=#82b366;" vertex="1" parent="1">
          <mxGeometry x="98" y="255" width="50" height="40" as="geometry" />
        </mxCell>
        <mxCell id="ThTMRLt4GayNaDXG0wz7-25" value="Filters" style="rounded=0;whiteSpace=wrap;html=1;fontSize=15;align=center;fillColor=#d5e8d4;strokeColor=#82b366;" vertex="1" parent="1">
          <mxGeometry x="158" y="255" width="50" height="40" as="geometry" />
        </mxCell>
        <mxCell id="ThTMRLt4GayNaDXG0wz7-27" value="col manager" style="rounded=0;whiteSpace=wrap;html=1;fontSize=15;align=center;fillColor=#d5e8d4;strokeColor=#82b366;" vertex="1" parent="1">
          <mxGeometry x="218" y="255" width="70" height="40" as="geometry" />
        </mxCell>
        <mxCell id="ThTMRLt4GayNaDXG0wz7-28" value="builder" style="rounded=0;whiteSpace=wrap;html=1;fontSize=15;fillColor=#ffe6cc;strokeColor=#d79b00;align=left;spacingLeft=4;fontStyle=1" vertex="1" parent="1">
          <mxGeometry x="30" y="310" width="400" height="50" as="geometry" />
        </mxCell>
        <mxCell id="ThTMRLt4GayNaDXG0wz7-29" value="Tree" style="rounded=0;whiteSpace=wrap;html=1;fontSize=15;align=center;fillColor=#d5e8d4;strokeColor=#82b366;" vertex="1" parent="1">
          <mxGeometry x="98" y="315" width="50" height="40" as="geometry" />
        </mxCell>
        <mxCell id="ThTMRLt4GayNaDXG0wz7-30" value="rebalance,permission,.." style="rounded=0;whiteSpace=wrap;html=1;fontSize=15;align=center;fillColor=#d5e8d4;strokeColor=#82b366;" vertex="1" parent="1">
          <mxGeometry x="158" y="315" width="172" height="40" as="geometry" />
        </mxCell>
        <mxCell id="ThTMRLt4GayNaDXG0wz7-31" value="Context" style="rounded=0;whiteSpace=wrap;html=1;fontSize=15;align=center;fillColor=#e1d5e7;strokeColor=#9673a6;" vertex="1" parent="1">
          <mxGeometry x="300" y="255" width="70" height="40" as="geometry" />
        </mxCell>
        <mxCell id="ThTMRLt4GayNaDXG0wz7-32" value="Context" style="rounded=0;whiteSpace=wrap;html=1;fontSize=15;align=center;fillColor=#e1d5e7;strokeColor=#9673a6;" vertex="1" parent="1">
          <mxGeometry x="340" y="315" width="70" height="40" as="geometry" />
        </mxCell>
        <mxCell id="ThTMRLt4GayNaDXG0wz7-33" value="App" style="rounded=0;whiteSpace=wrap;html=1;fontSize=15;fillColor=#ffe6cc;strokeColor=#d79b00;fontStyle=1" vertex="1" parent="1">
          <mxGeometry x="190" y="370" width="100" height="50" as="geometry" />
        </mxCell>
        <mxCell id="ThTMRLt4GayNaDXG0wz7-34" value="App Context" style="rounded=0;whiteSpace=wrap;html=1;fontSize=15;align=center;fillColor=#e1d5e7;strokeColor=#9673a6;" vertex="1" parent="1">
          <mxGeometry x="300" y="370" width="100" height="50" as="geometry" />
        </mxCell>
        <mxCell id="ThTMRLt4GayNaDXG0wz7-35" value="&lt;h1&gt;Heading&lt;/h1&gt;&lt;p&gt;Lorem ipsum dolor sit amet, consectetur adipisicing elit, sed do eiusmod tempor incididunt ut labore et dolore magna aliqua.&lt;/p&gt;" style="text;html=1;strokeColor=none;fillColor=none;spacing=5;spacingTop=-20;whiteSpace=wrap;overflow=hidden;rounded=0;fontSize=20;fontColor=#FF0000;align=center;" vertex="1" parent="1">
          <mxGeometry x="300" y="340" width="190" height="120" as="geometry" />
        </mxCell>
        <mxCell id="ThTMRLt4GayNaDXG0wz7-36" value="&lt;h1&gt;Heading&lt;/h1&gt;&lt;p&gt;Lorem ipsum dolor sit amet, consectetur adipisicing elit, sed do eiusmod tempor incididunt ut labore et dolore magna aliqua.&lt;/p&gt;" style="text;html=1;strokeColor=none;fillColor=none;spacing=5;spacingTop=-20;whiteSpace=wrap;overflow=hidden;rounded=0;fontSize=20;fontColor=#FF0000;align=center;" vertex="1" parent="1">
          <mxGeometry x="300" y="340" width="190" height="120" as="geometry" />
        </mxCell>
      </root>
    </mxGraphModel>
  </diagram>
</mxfile>
